<svg xmlns="http://www.w3.org/2000/svg" viewBox="0 0 180 180" role="img" aria-label="Word Cloud">
  <defs>
    <linearGradient id="bg" x1="0%" y1="0%" x2="100%" y2="100%">
      <stop offset="0%" stop-color="#0c0a1a"/>
      <stop offset="100%" stop-color="#312e81"/>
    </linearGradient>
    <linearGradient id="bubble" x1="0%" y1="0%" x2="0%" y2="100%">
      <stop offset="0%" stop-color="#5eead4"/>
      <stop offset="100%" stop-color="#7c3aed"/>
    </linearGradient>
    <linearGradient id="bubble2" x1="0%" y1="0%" x2="0%" y2="100%">
      <stop offset="0%" stop-color="#f9a8d4"/>
      <stop offset="100%" stop-color="#db2777"/>
    </linearGradient>
  </defs>
  <rect width="180" height="180" rx="40" fill="url(#bg)"/>
  <path
    d="M28 118 Q28 58 78 52 Q98 28 138 58 Q148 98 112 108 L92 132 L72 108 Q42 108 28 118 Z"
    fill="url(#bubble)"
  />
  <path
    d="M72 128 Q72 92 98 88 Q118 76 138 92 Q148 112 122 118 L108 138 L94 118 Q78 118 72 128 Z"
    fill="url(#bubble2)"
  />
  <text
    x="90"
    y="88"
    text-anchor="middle"
    font-family="system-ui,Segoe UI,sans-serif"
    font-size="52"
    font-weight="800"
    fill="#ffffff"
  >W</text>
</svg>
